<?xml version="1.0" encoding="utf-8"?>
<!-- Generator: Adobe Illustrator 15.1.0, SVG Export Plug-In . SVG Version: 6.00 Build 0)  -->
<!DOCTYPE svg PUBLIC "-//W3C//DTD SVG 1.1//EN" "http://www.w3.org/Graphics/SVG/1.1/DTD/svg11.dtd">
<svg version="1.1" id="Layer_1" xmlns="http://www.w3.org/2000/svg" xmlns:xlink="http://www.w3.org/1999/xlink" x="0px" y="0px"
	 width="73.647px" height="136.073px" viewBox="0 0 73.647 136.073" enable-background="new 0 0 73.647 136.073"
	 xml:space="preserve">
<g>
	<path fill="#FFFFFF" d="M54.444,64.554l-5.036-1.507c-0.607-2.609-1.756-4.88-3.487-6.882c-0.622-0.719-1.418-1.383-2.227-1.867
		c-2.228-1.485-4.723-2.182-7.444-2.092c-0.404,0-0.786,0.023-1.192,0.023l-0.044-0.292l-0.09-0.09l0.022-0.09l-2.587-39.291
		c-0.5-8.837-10.898-7.756-10.898-0.388c0,2.49-0.534,47.352-0.682,53.773c-0.041,1.776,0.455,2.513-1.061,3.198
		c-1.195,0.542-2.391,1.083-3.586,1.625C10.857,73.063,5.952,74.46,5.169,81.062l7.759,35.782c1.441,2.1,3.679,3.804,5.128,5.69
		c2.981,3.879,5.114,8.621,5.982,13.539h42.911c-0.594-2.299-1.188-4.598-1.783-6.896c-0.641-2.482-1.684-4.338-0.213-6.642
		c3.07-4.812,4.148-10.276,5.455-15.83c1.363-5.798,5.103-13.837,2.104-19.494c-0.931-1.756-2.239-2.473-3.822-3.667
		c-3.384-2.553-3.614-8.36-6.036-11.815c-2.187-3.117-4.858-5.246-8.143-7.085"/>
</g>
<g>
	<g>
		<polygon fill="#FFFFFF" points="10.81,29.952 10.81,20 3.26,20 3.26,29.952 0,29.952 7.034,37.158 14.07,29.952 		"/>
	</g>
</g>
<g>
	<g>
		<polygon fill="#FFFFFF" points="7.034,0 0,7.207 3.26,7.207 3.26,17.158 10.81,17.158 10.81,7.207 14.07,7.207 		"/>
	</g>
</g>
</svg>
